PathFileType	4	(X/Y/Z)	./resultDataOpenSim/trcMotMarkerGrf/sub06/qtm-01-02.trc
DataRate	CameraRate	NumFrames	NumMarkers	Units	OrigDataRate	OrigDataStartFrame	OrigNumFrames
250.000000	250.000000	10	24	m	250.000000	64	504
Frame#	Time	L.Toe.Tip			R.Toe.Tip			L.Ankle.Lat			R.Ankle.Lat			L.Ankle.Med			R.Ankle.Med			L.Heel			R.Heel			L.Knee.Lat			R.Knee.Lat			L.Knee.Med			R.Knee.Med			L.Thigh.Upper			R.Thigh.Upper			L.ASIS			R.ASIS			V.Sacral			L.Acromium			R.Acromium			C7			L.Elbow			R.Elbow			L.Wrist.Lat			R.Wrist.Lat
		X1	Y1	Z1	X2	Y2	Z2	X3	Y3	Z3	X4	Y4	Z4	X5	Y5	Z5	X6	Y6	Z6	X7	Y7	Z7	X8	Y8	Z8	X9	Y9	Z9	X10	Y10	Z10	X11	Y11	Z11	X12	Y12	Z12	X13	Y13	Z13	X14	Y14	Z14	X15	Y15	Z15	X16	Y16	Z16	X17	Y17	Z17	X18	Y18	Z18	X19	Y19	Z19	X20	Y20	Z20	X21	Y21	Z21	X22	Y22	Z22	X23	Y23	Z23	X24	Y24	Z24

64	0.252	-1.3561162	0.074317524	-0.093937953	-0.7718017	0.035445448	0.057280273	-1.3519323	0.20598144	-0.12195659	-0.90347097	0.061876201	0.085979117	-1.3318692	0.20738492	-0.04037093	-0.89187442	0.079126661	-0.0026203835	-1.393428	0.26259049	-0.068895159	-0.9645858	0.037942823	0.027268462	-1.0152641	0.38149931	-0.15840351	-0.84362446	0.44328815	0.10708346	-1.007826	0.36774063	-0.038328834	-0.88970693	0.43071645	-0.011657727	-1.0242799	0.774779	-0.16120984	-0.97957258	0.79314024	0.17917523	-0.94216326	0.8260771	-0.12581872	-0.90405274	0.84451672	0.11248742	-1.1082765	0.91298312	0.023646785	-0.97762342	1.3216286	-0.16734849	-0.98572574	1.2923032	0.1955592	-1.0565169	1.3503919	0.014252164	-0.99320966	0.99910422	-0.24009104	-1.0973615	0.99412773	0.22899695	-0.80136697	0.84667076	-0.19970625	-1.0125063	0.77461937	0.2799701
65	0.256	-1.341239	0.075426287	-0.093937286	-0.77191673	0.035448243	0.057400783	-1.3392414	0.20703021	-0.12149817	-0.90384241	0.061821907	0.086034433	-1.3173883	0.209043	-0.040566117	-0.89192566	0.079215058	-0.0024660888	-1.3812543	0.26312592	-0.068217375	-0.9646498	0.037992117	0.027336152	-1.0032939	0.38289319	-0.15893279	-0.84183758	0.44283025	0.10766684	-0.9956171	0.36937735	-0.038684609	-0.88768002	0.4308317	-0.010973753	-1.0180883	0.77614123	-0.16066919	-0.97266139	0.79440932	0.18001288	-0.93622908	0.82761982	-0.12535347	-0.89835696	0.84553204	0.11313244	-1.1025797	0.91429796	0.024715743	-0.9722304	1.3229987	-0.16728285	-0.9793765	1.29396	0.19564372	-1.0505942	1.3517988	0.014447521	-0.98880257	1.0005348	-0.24021743	-1.089567	0.99516655	0.22987052	-0.79789069	0.84693368	-0.19983582	-1.0026333	0.77628604	0.28050309
66	0.26	-1.3262445	0.076319514	-0.093976427	-0.77204029	0.035458826	0.057523293	-1.3263205	0.20783337	-0.12100546	-0.90418355	0.061790157	0.086128289	-1.3031158	0.2103897	-0.040630731	-0.89199442	0.079310258	-0.0023067339	-1.3690611	0.26347993	-0.067700793	-0.96471946	0.038047107	0.027412683	-0.99134168	0.38440718	-0.15941693	-0.84021858	0.44244539	0.10830807	-0.98345488	0.37116746	-0.038993725	-0.88555236	0.43096122	-0.010564722	-1.0119272	0.77758618	-0.16020123	-0.96570541	0.79571053	0.1809429	-0.93031022	0.82917082	-0.12497984	-0.89272423	0.84660534	0.11381969	-1.0971521	0.91554781	0.025997217	-0.96689149	1.324415	-0.16721929	-0.97306146	1.2956914	0.19572039	-1.044699	1.3532251	0.014616389	-0.98438661	1.0019831	-0.23994274	-1.0816347	0.99628898	0.2307242	-0.79444921	0.84725302	-0.19997393	-0.99260369	0.77812094	0.28100717
67	0.264	-1.3111388	0.077010604	-0.094046724	-0.77215996	0.035472891	0.057647273	-1.3131934	0.20844102	-0.1205257	-0.9044562	0.061778811	0.086255745	-1.2894496	0.21139253	-0.040460423	-0.89206908	0.079417323	-0.0021390299	-1.356862	0.26363558	-0.067420811	-0.96478562	0.038108385	0.027492387	-0.97940684	0.38605328	-0.15985404	-0.83869224	0.44213475	0.10896033	-0.97150358	0.37311261	-0.039159433	-0.88336416	0.43112108	-0.010362502	-1.0057682	0.77911219	-0.1598485	-0.95977444	0.79685696	0.18162594	-0.92437397	0.83071981	-0.12471254	-0.88713642	0.84771966	0.11454443	-1.0917421	0.91678429	0.027206036	-0.96159398	1.3258759	-0.16715898	-0.96676991	1.2974871	0.19578626	-1.0388265	1.3546685	0.014760351	-0.9799975	1.0034704	-0.23948074	-1.0735472	0.9974232	0.23148587	-0.79103783	0.84762892	-0.20012208	-0.9824954	0.78008658	0.28148508
68	0.268	-1.2959028	0.077510743	-0.094117809	-0.77226747	0.035485889	0.057770267	-1.2999278	0.20886385	-0.12009604	-0.90466356	0.061780747	0.086396338	-1.2761187	0.21210495	-0.040150945	-0.89214181	0.07953609	-0.0019619981	-1.3446223	0.26352472	-0.067117436	-0.9648385	0.038175878	0.027570368	-0.96750093	0.38783541	-0.16024363	-0.83719658	0.44189273	0.1095825	-0.95986558	0.37514225	-0.03910858	-0.88121198	0.43130526	-0.010196955	-0.99959607	0.78071786	-0.15965716	-0.95526006	0.79776358	0.18191137	-0.91843114	0.83228321	-0.12453364	-0.88157845	0.84885381	0.11529627	-1.0860498	0.91810672	0.028106232	-0.95632044	1.3273769	-0.16710225	-0.96049534	1.2993384	0.19583691	-1.0329772	1.356126	0.014884331	-0.97565627	1.0050182	-0.23900632	-1.0653522	0.99856856	0.23220677	-0.78767017	0.84805503	-0.20029747	-0.97234376	0.7821565	0.28194448
69	0.272	-1.2805139	0.077827206	-0.094169259	-0.77235951	0.035495661	0.057888056	-1.2865948	0.20907962	-0.1197084	-0.90482593	0.061786764	0.086536557	-1.2627965	0.21256408	-0.039808566	-0.89220307	0.07966233	-0.0017802808	-1.3322656	0.26309608	-0.066615666	-0.96487324	0.038250136	0.027644795	-0.95563056	0.38974503	-0.16058163	-0.83570723	0.44170867	0.11017176	-0.94841636	0.37717177	-0.038901958	-0.87916846	0.43149716	-0.0099472934	-0.99341897	0.78240443	-0.1596367	-0.95158937	0.79851235	0.18194137	-0.91247797	0.83388318	-0.12439858	-0.87605112	0.84999763	0.11606963	-1.0800044	0.9196159	0.028803613	-0.95105469	1.3289102	-0.16704684	-0.95422837	1.301234	0.19587031	-1.0271513	1.3575996	0.015000202	-0.97136459	1.0066341	-0.23858053	-1.0571191	0.99976674	0.23300116	-0.78435553	0.84851801	-0.20051467	-0.9621524	0.78431528	0.28238793
70	0.276	-1.2649494	0.077963962	-0.094204846	-0.7724348	0.035503157	0.057995937	-1.2732204	0.20905793	-0.1193244	-0.90496086	0.061790237	0.086675483	-1.2493499	0.21277876	-0.039484023	-0.892243	0.079791523	-0.0016007595	-1.3197357	0.2623573	-0.066005983	-0.96489071	0.038332923	0.027715528	-0.94380067	0.39177154	-0.16086371	-0.83421568	0.44157106	0.11074366	-0.93686217	0.37918376	-0.038713214	-0.87724869	0.431688	-0.0096223656	-0.98725473	0.78418087	-0.15973075	-0.94779074	0.79927012	0.18199641	-0.90649243	0.83553268	-0.12425259	-0.87055326	0.85115658	0.11686415	-1.073712	0.92134545	0.029605041	-0.94578941	1.3304663	-0.16698775	-0.94795897	1.3031606	0.19588641	-1.021343	1.3590891	0.015124013	-0.96711407	1.008311	-0.23818839	-1.0488938	1.001041	0.23392446	-0.78108994	0.84900443	-0.2007786	-0.9519158	0.78655	0.28280776
71	0.28	-1.2491774	0.077933347	-0.094256772	-0.77249253	0.035510101	0.058088926	-1.2597645	0.20878719	-0.1189298	-0.90507374	0.061790004	0.08681639	-1.2357333	0.21276551	-0.039196288	-0.89225807	0.079922616	-0.0014284514	-1.3070332	0.26135124	-0.065452013	-0.96489493	0.03842638	0.027783896	-0.93202208	0.39390784	-0.16109574	-0.83269798	0.44146845	0.11129905	-0.92502259	0.38122037	-0.038654418	-0.87542718	0.43188059	-0.0092784157	-0.98108669	0.78605696	-0.15979495	-0.94332069	0.80012985	0.18225024	-0.9004582	0.83722767	-0.12405546	-0.8650393	0.85234887	0.11768534	-1.0673129	0.9231927	0.030604482	-0.9405257	1.3320352	-0.16692228	-0.94168774	1.3051106	0.1958849	-1.0155419	1.3605829	0.015266074	-0.96289495	1.010035	-0.23779744	-1.0407419	1.0023884	0.23493133	-0.77786421	0.84951078	-0.20109181	-0.94162902	0.78884892	0.28319572
72	0.284	-1.2331515	0.077761558	-0.094376145	-0.77253366	0.035516584	0.058162475	-1.2461634	0.20828245	-0.11855043	-0.90515991	0.061789703	0.086959559	-1.2219206	0.21254948	-0.038951727	-0.89225655	0.080058207	-0.0012668705	-1.2941903	0.26010559	-0.065014439	-0.96489124	0.038531553	0.027851962	-0.92030699	0.39614609	-0.16128819	-0.83113624	0.44138643	0.11182701	-0.9129279	0.38332801	-0.038710268	-0.87371638	0.43207746	-0.0089453427	-0.97480273	0.78800639	-0.15959481	-0.93827889	0.80106297	0.18268244	-0.8943921	0.83894949	-0.12380821	-0.85939175	0.85359725	0.11854599	-1.0610199	0.92495304	0.031463797	-0.9352662	1.3336061	-0.16685117	-0.9354179	1.3070774	0.19586372	-1.0097396	1.3620672	0.015424974	-0.95870346	1.0117941	-0.23739744	-1.0327313	1.0037937	0.23593564	-0.77467184	0.85004324	-0.20145929	-0.93129115	0.79120369	0.28355035
73	0.288	-1.2168449	0.077471923	-0.094591674	-0.77256189	0.035521329	0.058214551	-1.2323978	0.20756478	-0.11821069	-0.90521477	0.061795752	0.087099615	-1.2079615	0.21214204	-0.038737064	-0.89225666	0.080201443	-0.0011186546	-1.2812422	0.25861781	-0.064657718	-0.96488636	0.038646416	0.027921012	-0.90865849	0.39847384	-0.1614471	-0.82959722	0.44131272	0.11232042	-0.90068253	0.38553283	-0.038818193	-0.87220975	0.43226932	-0.0086380289	-0.96822636	0.78994924	-0.15894359	-0.93301353	0.80199874	0.1831842	-0.88834567	0.840674	-0.12354634	-0.85348774	0.85491248	0.11945389	-1.0551532	0.92647062	0.031600958	-0.93001081	1.3351701	-0.16677522	-0.92913842	1.3090447	0.19581929	-1.003934	1.3635341	0.015592854	-0.95454537	1.0135796	-0.23700781	-1.0248488	1.0052299	0.23688706	-0.77150792	0.85060679	-0.20188424	-0.92090404	0.79360785	0.28386885
